<svg width="100" height="30" viewBox="0 0 100 30" fill="none" xmlns="http://www.w3.org/2000/svg">
    <path
        d="M8.97559 5.51562V24H6.56348V5.51562H8.97559ZM14.917 5.51562V7.52148H0.634766V5.51562H14.917ZM23.4863 7.15332L17.3672 24H14.8662L21.9121 5.51562H23.5244L23.4863 7.15332ZM28.6152 24L22.4834 7.15332L22.4453 5.51562H24.0576L31.1289 24H28.6152ZM28.2979 17.1572V19.1631H17.9131V17.1572H28.2979ZM40.1934 15.3545H35.5088L35.4834 13.3867H39.7363C40.4388 13.3867 41.0524 13.2682 41.5771 13.0312C42.1019 12.7943 42.5081 12.4557 42.7959 12.0156C43.0921 11.5671 43.2402 11.0339 43.2402 10.416C43.2402 9.73893 43.109 9.1888 42.8467 8.76562C42.5928 8.33398 42.1992 8.02083 41.666 7.82617C41.1413 7.62305 40.4727 7.52148 39.6602 7.52148H36.0547V24H33.6045V5.51562H39.6602C40.6081 5.51562 41.4544 5.61296 42.1992 5.80762C42.944 5.99382 43.5745 6.29004 44.0908 6.69629C44.6156 7.09408 45.0133 7.60189 45.2842 8.21973C45.555 8.83757 45.6904 9.57812 45.6904 10.4414C45.6904 11.2031 45.4958 11.8929 45.1064 12.5107C44.7171 13.1201 44.1755 13.6195 43.4814 14.0088C42.7959 14.3981 41.9919 14.6478 41.0693 14.7578L40.1934 15.3545ZM40.0791 24H34.5439L35.9277 22.0068H40.0791C40.8577 22.0068 41.5179 21.8714 42.0596 21.6006C42.6097 21.3298 43.0286 20.9489 43.3164 20.458C43.6042 19.9587 43.748 19.3704 43.748 18.6934C43.748 18.0078 43.6253 17.4154 43.3799 16.916C43.1344 16.4167 42.7493 16.0316 42.2246 15.7607C41.6999 15.4899 41.0228 15.3545 40.1934 15.3545H36.7021L36.7275 13.3867H41.501L42.0215 14.0977C42.9102 14.1738 43.6634 14.4277 44.2812 14.8594C44.8991 15.2826 45.3688 15.8242 45.6904 16.4844C46.0205 17.1445 46.1855 17.8724 46.1855 18.668C46.1855 19.819 45.9316 20.7923 45.4238 21.5879C44.9245 22.375 44.2178 22.9759 43.3037 23.3906C42.3896 23.7969 41.3148 24 40.0791 24ZM61.0137 22.0068V24H51.7715V22.0068H61.0137ZM52.2539 5.51562V24H49.8037V5.51562H52.2539Z"
        fill="#3B7FBE"
    />
    <path
        d="M99 11C99 12.6954 97.7883 14.4258 95.4034 15.7886C93.0467 17.1353 89.7242 18 86 18C82.2758 18 78.9533 17.1353 76.5966 15.7886C74.2117 14.4258 73 12.6954 73 11C73 9.30459 74.2117 7.57423 76.5966 6.21139C78.9533 4.86472 82.2758 4 86 4C89.7242 4 93.0467 4.86472 95.4034 6.21139C97.7883 7.57423 99 9.30459 99 11Z"
        stroke="#3B7FBE" stroke-width="2" stroke-linecap="round" />
    <line x1="73" y1="12" x2="73" y2="26" stroke="#3B7FBE" stroke-width="2" stroke-linecap="round" />
    <line x1="79.667" y1="17.333" x2="79.667" y2="25.9997" stroke="#3B7FBE" stroke-width="2"
        stroke-linecap="round" />
    <line x1="91.666" y1="18.333" x2="91.666" y2="26.9997" stroke="#3B7FBE" stroke-width="2"
        stroke-linecap="round" />
    <path d="M98.9629 12.333L98.9629 26.2589" stroke="#3B7FBE" stroke-width="2"
        stroke-linecap="round" />
</svg>